HIERARCHY
ROOT root
{
	OFFSET	0	13.1	24.9
	CHANNELS 6  Xposition Yposition Zposition Xrotation Yrotation Zrotation
	JOINT spine_1
	{
		OFFSET	0	9.99999	0
		CHANNELS 3  Xrotation Yrotation Zrotation
		JOINT spine_2
		{
			OFFSET	0	112	-10
			CHANNELS 3  Xrotation Yrotation Zrotation
			JOINT spine_3
			{
				OFFSET	0	206.5	19.3
				CHANNELS 3  Xrotation Yrotation Zrotation
				JOINT spine_4
				{
					OFFSET	0	110.4	14.6
					CHANNELS 3  Xrotation Yrotation Zrotation
					JOINT neck_1
					{
						OFFSET	0	71.8	-50.3
						CHANNELS 3  Xrotation Yrotation Zrotation
						JOINT neck_2
						{
							OFFSET	0	86.2	-25.8
							CHANNELS 3  Xrotation Yrotation Zrotation
							JOINT head_ee
							{
								OFFSET	0	179.8	-8.7
								CHANNELS 3  Xrotation Yrotation Zrotation
								End Site
								{
									OFFSET	1	0	0
								}
							}
						}
					}
					JOINT left_clavicle
					{
						OFFSET	-43.2	22.4	-70.8
						CHANNELS 3  Xrotation Yrotation Zrotation
						JOINT left_shoulder
						{
							OFFSET	-93.9	-5.79999	48.7
							CHANNELS 3  Xrotation Yrotation Zrotation
							JOINT left_elbow
							{
								OFFSET	-291.4	-30.8	15.2
								CHANNELS 3  Xrotation Yrotation Zrotation
								JOINT left_lowarm_twist
								{
									OFFSET	-110.7	-3.89999	13.6
									CHANNELS 3  Xrotation Yrotation Zrotation
									JOINT left_hand
									{
										OFFSET	-110.7	-3.89999	13.6
										CHANNELS 3  Xrotation Yrotation Zrotation
										JOINT left_ee
										{
											OFFSET	-80.8	-5.10001	12.1
											CHANNELS 3  Xrotation Yrotation Zrotation
											End Site
											{
												OFFSET	1	0	0
											}
										}
									}
								}
							}
						}
					}
					JOINT right_clavicle
					{
						OFFSET	43.2	22.4	-70.8
						CHANNELS 3  Xrotation Yrotation Zrotation
						JOINT right_shoulder
						{
							OFFSET	93.9	-5.79999	48.7
							CHANNELS 3  Xrotation Yrotation Zrotation
							JOINT right_elbow
							{
								OFFSET	291.4	-30.8	15.2
								CHANNELS 3  Xrotation Yrotation Zrotation
								JOINT right_lowarm_twist
								{
									OFFSET	110.7	-3.89999	13.6
									CHANNELS 3  Xrotation Yrotation Zrotation
									JOINT right_hand
									{
										OFFSET	110.7	-3.89999	13.6
										CHANNELS 3  Xrotation Yrotation Zrotation
										JOINT right_ee
										{
											OFFSET	80.8	-5.10001	12.1
											CHANNELS 3  Xrotation Yrotation Zrotation
											End Site
											{
												OFFSET	1	0	0
											}
										}
									}
								}
							}
						}
					}
				}
			}
		}
	}
	JOINT left_hip
	{
		OFFSET	-82.8	-127.5	0.300001
		CHANNELS 3  Xrotation Yrotation Zrotation
		JOINT left_knee
		{
			OFFSET	-28.2	-396.7	2.2
			CHANNELS 3  Xrotation Yrotation Zrotation
			JOINT left_ankle
			{
				OFFSET	-11.7	-411.3	35.4
				CHANNELS 3  Xrotation Yrotation Zrotation
				JOINT left_toes
				{
					OFFSET	0	-60	-88.6
					CHANNELS 3  Xrotation Yrotation Zrotation
					JOINT left_foot_ee
					{
						OFFSET	-22.5	-16.5	-42.2
						CHANNELS 3  Xrotation Yrotation Zrotation
						End Site
						{
							OFFSET	1	0	0
						}
					}
				}
			}
		}
	}
	JOINT right_hip
	{
		OFFSET	82.8	-127.5	0.300001
		CHANNELS 3  Xrotation Yrotation Zrotation
		JOINT right_knee
		{
			OFFSET	28.2	-396.7	2.2
			CHANNELS 3  Xrotation Yrotation Zrotation
			JOINT right_ankle
			{
				OFFSET	11.7	-411.3	35.4
				CHANNELS 3  Xrotation Yrotation Zrotation
				JOINT right_toes
				{
					OFFSET	0	-60	-88.6
					CHANNELS 3  Xrotation Yrotation Zrotation
					JOINT right_foot_ee
					{
						OFFSET	22.5	-16.5	-42.2
						CHANNELS 3  Xrotation Yrotation Zrotation
						End Site
						{
							OFFSET	1	0	0
						}
					}
				}
			}
		}
	}
}
MOTION
Frames: 9
Frame Time: 0.02
3177.02 653.055 -1669.29 -15.3150246778 28.9510311918 3.34144679472 4.11571 0.39941 2.37714 4.11882 0.247381 2.39773 4.12726 -0.0889319 2.40881 4.11929 0.292499 2.39264 -7.6102 14.8896 -0.689103 -7.66218 28.2636 2.53798 -0.0 0.0 -0.0 3.80607 23.5657 7.94776 -27.65 -23.7392 59.3884 0.973407 -25.7428 0.222433 15.4277 0.28332 -1.94445 -0.577742 28.0328 7.81917 -0.0 0.0 -0.0 -2.27979 -17.0616 1.53286 -1.30027 27.8849 -91.9384 0.510657 14.1962 -0.0635887 80.5872 3.90642 8.64252 -3.5532 -28.6463 8.01381 0.0 0.0 0.0 40.9181 1.26885 3.1893 -4.75068 0.166241 0.709927 0.889264 21.4787 -0.133326 -17.3152 0.0 0.0 -0.0 0.0 -0.0 4.4347 51.6817 -3.28245 -21.7636 -0.270515 -3.3088 13.8764 -27.2877 2.06472 39.6945 -0.0 -0.0 0.0 0.0 0.0 
3149.38089337 652.691 -1695.48678136 -15.6839967171 26.8030311416 2.83485685233 4.86262 0.463368 2.55171 4.86619 0.300112 2.576 4.87673 -0.0275608 2.59327 4.86755 0.382206 2.56512 -5.7737 14.7055 1.66513 -5.68472 25.9723 4.40768 -0.0 0.0 -0.0 4.13997 23.5607 8.41081 -28.5702 -25.3305 58.1105 0.925442 -24.6281 0.202021 14.402 0.280832 -1.81347 -0.985107 26.7394 5.05413 -0.0 0.0 -0.0 -2.46451 -15.1336 2.16638 0.0419196 24.2799 -91.8757 0.454755 12.6954 -0.0505891 81.6511 4.03023 8.70009 -3.64446 -28.316 8.71242 0.0 0.0 0.0 40.7564 2.20586 3.16731 -7.61403 0.237796 1.14347 8.10556 21.8924 -1.19434 -17.7223 0.0 0.0 -0.0 0.0 -0.0 6.06038 53.4028 -4.29767 -27.7491 -0.123679 -4.21519 16.7992 -18.2999 2.36901 37.4921 -0.0 -0.0 0.0 0.0 0.0 
3149.26288009 652.691 -1695.36170618 -15.7195620956 27.0521039827 2.913391049 4.86262 0.463368 2.55171 4.86619 0.300112 2.576 4.87673 -0.0275608 2.59327 4.86755 0.382206 2.56512 -5.7737 14.7055 1.66513 -5.68472 25.9723 4.40768 -0.0 0.0 -0.0 4.13997 23.5607 8.41081 -28.5702 -25.3305 58.1105 0.925442 -24.6281 0.202021 14.402 0.280832 -1.81347 -0.985107 26.7394 5.05413 -0.0 0.0 -0.0 -2.46451 -15.1336 2.16638 0.0419196 24.2799 -91.8757 0.454755 12.6954 -0.0505891 81.6511 4.03023 8.70009 -3.64446 -28.316 8.71242 0.0 0.0 0.0 40.7564 2.20586 3.16731 -7.61403 0.237796 1.14347 8.10556 21.8924 -1.19434 -17.7223 0.0 0.0 -0.0 0.0 -0.0 6.06038 53.4028 -4.29767 -27.7491 -0.123679 -4.21519 16.7992 -18.2999 2.36901 37.4921 -0.0 -0.0 0.0 0.0 0.0 
3123.73371542 656.252 -1718.5693413 -16.1173011216 26.0324284832 3.073811288 5.10875 0.61689 2.74753 5.11284 0.440877 2.78118 5.13054 0.0988037 2.81415 5.1199 0.541834 2.7633 -6.13885 13.6831 0.490654 -6.08045 24.9854 3.1103 -0.0 0.0 -0.0 4.34881 23.936 8.69399 -31.0081 -27.0511 56.3406 0.964865 -25.5458 0.218736 13.3094 0.275602 -1.67401 -1.07042 26.8697 4.63696 -0.0 0.0 -0.0 -3.27342 -16.5844 3.17811 2.08857 21.2888 -92.5327 0.416873 11.6682 -0.0425951 81.9122 4.06077 8.71386 -3.90069 -28.4939 10.0102 0.0 0.0 0.0 40.0457 2.84973 3.24008 -9.12208 0.266745 1.37307 10.2736 22.9633 -1.51097 -18.9196 0.0 0.0 -0.0 0.0 -0.0 5.33792 55.6507 -4.1118 -27.3736 -0.135668 -4.15882 17.882 -20.3563 2.52997 38.3145 -0.0 -0.0 0.0 0.0 0.0 
3123.46605955 656.252 -1718.27833603 -16.1599576588 26.3322457814 3.1704875282 5.10875 0.61689 2.74753 5.11284 0.440877 2.78118 5.13054 0.0988037 2.81415 5.1199 0.541834 2.7633 -6.13885 13.6831 0.490654 -6.08045 24.9854 3.1103 -0.0 0.0 -0.0 4.34881 23.936 8.69399 -31.0081 -27.0511 56.3406 0.964865 -25.5458 0.218736 13.3094 0.275602 -1.67401 -1.07042 26.8697 4.63696 -0.0 0.0 -0.0 -3.27342 -16.5844 3.17811 2.08857 21.2888 -92.5327 0.416873 11.6682 -0.0425951 81.9122 4.06077 8.71386 -3.90069 -28.4939 10.0102 0.0 0.0 0.0 40.0457 2.84973 3.24008 -9.12208 0.266745 1.37307 10.2736 22.9633 -1.51097 -18.9196 0.0 0.0 -0.0 0.0 -0.0 5.33792 55.6507 -4.1118 -27.3736 -0.135668 -4.15882 17.882 -20.3563 2.52997 38.3145 -0.0 -0.0 0.0 0.0 0.0 
3112.6762817 657.948 -1738.86970756 -16.0814945308 23.0303725295 1.8590640655 5.29115 0.893489 3.08741 5.29619 0.695318 3.13794 5.32937 0.319393 3.19809 5.31604 0.820219 3.10766 -6.13266 13.3645 2.01666 -6.08027 23.2801 4.57863 -0.0 0.0 -0.0 4.43971 24.9126 8.79669 -35.8686 -28.9321 52.5934 0.960116 -25.4359 0.216693 12.0558 0.266328 -1.51417 -0.910385 20.0511 2.6628 -0.0 0.0 -0.0 -2.63213 -16.7613 2.13662 2.42419 17.2214 -91.0451 0.297054 8.3713 -0.0217396 83.137 4.20487 8.77662 -3.88387 -28.7161 9.77818 0.0 0.0 0.0 39.7039 4.45567 2.4282 -10.3661 0.286069 1.56297 13.6492 21.7651 -1.97396 -17.9723 0.0 0.0 -0.0 0.0 -0.0 4.30417 58.0336 -2.69815 -27.9938 -0.115663 -4.2519 22.768 -12.7846 3.08423 38.3442 -0.0 -0.0 0.0 0.0 0.0 
3113.25080008 657.948 -1739.39662544 -16.0266953781 22.5774496275 1.71767671 5.29115 0.893489 3.08741 5.29619 0.695318 3.13794 5.32937 0.319393 3.19809 5.31604 0.820219 3.10766 -6.13266 13.3645 2.01666 -6.08027 23.2801 4.57863 -0.0 0.0 -0.0 4.43971 24.9126 8.79669 -35.8686 -28.9321 52.5934 0.960116 -25.4359 0.216693 12.0558 0.266328 -1.51417 -0.910385 20.0511 2.6628 -0.0 0.0 -0.0 -2.63213 -16.7613 2.13662 2.42419 17.2214 -91.0451 0.297054 8.3713 -0.0217396 83.137 4.20487 8.77662 -3.88387 -28.7161 9.77818 0.0 0.0 0.0 39.7039 4.45567 2.4282 -10.3661 0.286069 1.56297 13.6492 21.7651 -1.97396 -17.9723 0.0 0.0 -0.0 0.0 -0.0 4.30417 58.0336 -2.69815 -27.9938 -0.115663 -4.2519 22.768 -12.7846 3.08423 38.3442 -0.0 -0.0 0.0 0.0 0.0 
3114.07059637 657.948 -1740.13364736 -15.9515611596 21.9367514635 1.51931277936 5.29115 0.893489 3.08741 5.29619 0.695318 3.13794 5.32937 0.319393 3.19809 5.31604 0.820219 3.10766 -6.13266 13.3645 2.01666 -6.08027 23.2801 4.57863 -0.0 0.0 -0.0 4.43971 24.9126 8.79669 -35.8686 -28.9321 52.5934 0.960116 -25.4359 0.216693 12.0558 0.266328 -1.51417 -0.910385 20.0511 2.6628 -0.0 0.0 -0.0 -2.63213 -16.7613 2.13662 2.42419 17.2214 -91.0451 0.297054 8.3713 -0.0217396 83.137 4.20487 8.77662 -3.88387 -28.7161 9.77818 0.0 0.0 0.0 39.7039 4.45567 2.4282 -10.3661 0.286069 1.56297 13.6492 21.7651 -1.97396 -17.9723 0.0 0.0 -0.0 0.0 -0.0 4.30417 58.0336 -2.69815 -27.9938 -0.115663 -4.2519 22.768 -12.7846 3.08423 38.3442 -0.0 -0.0 0.0 0.0 0.0 
3114.63384029 657.948 -1740.63014904 -15.9019441232 21.5002382167 1.38523061508 5.29115 0.893489 3.08741 5.29619 0.695318 3.13794 5.32937 0.319393 3.19809 5.31604 0.820219 3.10766 -6.13266 13.3645 2.01666 -6.08027 23.2801 4.57863 -0.0 0.0 -0.0 4.43971 24.9126 8.79669 -35.8686 -28.9321 52.5934 0.960116 -25.4359 0.216693 12.0558 0.266328 -1.51417 -0.910385 20.0511 2.6628 -0.0 0.0 -0.0 -2.63213 -16.7613 2.13662 2.42419 17.2214 -91.0451 0.297054 8.3713 -0.0217396 83.137 4.20487 8.77662 -3.88387 -28.7161 9.77818 0.0 0.0 0.0 39.7039 4.45567 2.4282 -10.3661 0.286069 1.56297 13.6492 21.7651 -1.97396 -17.9723 0.0 0.0 -0.0 0.0 -0.0 4.30417 58.0336 -2.69815 -27.9938 -0.115663 -4.2519 22.768 -12.7846 3.08423 38.3442 -0.0 -0.0 0.0 0.0 0.0 
